<svg width="472" height="410" viewBox="0 0 472 410" fill="none" xmlns="http://www.w3.org/2000/svg">
<circle cx="94.2262" cy="65" r="20" fill="oklch(0.7055 0.2151 18.29)"/>
<path d="M94.8386 349.575C94.8504 349.582 94.8637 349.59 94.8757 349.597C96.966 350.818 100.515 352.541 105.012 352.829C106.512 352.924 109.116 352.909 112.688 352.701C109.672 359.923 102.543 365 94.2263 365C85.6489 365 78.3344 359.6 75.4929 352.014C77.0154 352.191 78.6008 352.314 80.2497 352.384L80.9362 352.404C86.1529 352.483 91.1961 350.96 94.8044 349.555C94.8156 349.562 94.8274 349.568 94.8386 349.575Z" fill="oklch(0.7055 0.2151 18.29)"/>
<path d="M374.226 44.9996C382.021 44.9997 388.773 49.4593 392.073 55.9655C391.971 55.9029 391.869 55.8391 391.766 55.777C379.24 48.19 364.342 49.1098 355.342 58.403C358.069 50.5991 365.492 44.9996 374.226 44.9996Z" fill="oklch(0.7055 0.2151 18.29)"/>
<circle cx="374.226" cy="345" r="20" fill="oklch(0.7055 0.2151 18.29)"/>
<path d="M439.226 346C439.226 381.07 411.018 409.552 376.053 409.995L375.226 410H93.2262L92.399 409.995C57.7093 409.556 29.6705 381.517 29.2311 346.827L29.2272 346.18C29.3522 346.189 29.4765 346.2 29.6002 346.209C32.5228 346.42 35.0753 346.409 37.1686 346.306C37.401 346.411 37.6383 346.52 37.8815 346.627C40.7285 347.876 45.8243 349.876 51.3492 350.284C52.0515 350.336 52.7579 350.357 53.4625 350.358C55.6343 370.4 72.6076 386 93.2262 386H375.226C397.318 386 415.226 368.091 415.226 346V274.754C424.339 272.024 432.291 269.141 439.226 266.194V346Z" fill="oklch(0.7055 0.2151 18.29)"/>
<path d="M375.226 0C410.572 0 439.226 28.6538 439.226 64V109.974C436.388 105.041 433.493 100.277 430.667 95.625C430.258 94.9524 429.85 94.2823 429.445 93.6143C425.442 87.0194 420.64 80.7124 415.226 74.9316V64C415.226 41.9086 397.318 24 375.226 24H93.2262C71.1348 24 53.2262 41.9086 53.2262 64V236.774C45.7878 240.354 37.4491 244.066 29.2262 247.154V64C29.2262 28.6538 57.88 3.2213e-08 93.2262 0H375.226Z" fill="oklch(0.7055 0.2151 18.29)"/>
<path d="M250.598 84.0136C262.173 75.5323 268.003 66.5377 280.405 67.2377C286.965 67.6081 285.792 82.9272 284.658 87.0159C282.007 96.5723 278.868 105.417 278.868 105.417C278.919 105.434 315.765 117.535 332.231 117.356C343.536 117.233 353.749 110.341 353.768 110.329C359.039 105.984 360.452 91.1451 360.456 91.1024C360.456 91.1024 362.765 76.0638 365.345 71.5403C367.926 67.0169 374.892 64.2628 383.477 69.4624C396.423 77.3033 407.914 88.9765 415.766 101.915C423.834 115.208 431.7 127.941 437.61 142.47C447.224 166.102 442.923 173.862 442.923 173.862C442.949 173.863 458.821 174.678 461.965 182.873C476.575 220.962 470.508 223.553 470.508 223.553C470.492 223.599 463.347 244.334 407.562 260.33L346.472 277.848C346.462 277.851 335.414 281.866 314.627 279.601C313.862 279.371 313.499 275.669 313.162 275.481C312.825 275.294 312.531 275.259 311.625 275.071C300.158 272.684 287.078 268.796 269.474 273.537C265.103 274.715 258.864 280.734 253.153 287.865C251.96 289.354 249.167 292.554 248.289 294.651C247.545 296.427 248.503 298.297 247.469 299.71C243.602 304.993 236.186 307.816 233.278 308.603C206.076 315.965 183.064 322.15 170.126 325.86C134.993 335.934 110.079 337.12 106.032 336.861C101.994 336.603 97.1661 330.637 97.1465 330.613C97.1321 330.622 87.3416 336.671 80.9291 336.398C68.0383 335.85 67.0673 331.602 67.062 331.578C67.062 331.578 58.068 334.736 52.5277 334.327C47.0297 333.921 40.2216 329.932 40.1971 329.918C40.1971 329.918 25.738 332.929 8.00755 323.542C4.67926 321.78 6.80182 316.51 5.30098 314.103C3.80004 311.696 -1.98388 291.851 0.701608 284.209C4.13918 274.427 13.8384 269.66 21.2164 266.693C42.8211 260.498 67.9561 247.615 79.7143 241.123C87.4863 236.831 94.2107 232.345 102.233 225.843C101.221 223.522 100.916 221.052 101.91 218.584C104.169 212.981 109.739 217.19 116.852 210.327C121.699 205.649 116.824 201.233 120.397 195.974C125.186 188.926 133.01 193.149 138.71 187.602C147.806 178.751 140.31 175.215 145.925 170.211C151.332 165.391 156.453 170.313 163.79 164.237C170.467 158.708 165.847 160.525 169.059 149.957C171.233 142.806 181.204 147.795 187.37 143.573C188.33 142.574 189.279 141.582 190.217 140.598C191.597 137.65 189.024 134.865 191.595 129.591C194.183 124.282 198.792 127.171 203.175 126.915C207.313 122.559 211.405 118.308 215.629 114.105C216.152 111.095 215.098 108.406 217.161 104.952C219.195 101.546 224.001 100.38 229.027 101.448C235.47 95.705 242.505 89.9433 250.598 84.0136Z" fill="oklch(0.7055 0.2151 18.29)"/>
</svg>