<?xml version="1.0" encoding="UTF-8" standalone="no"?>
<!DOCTYPE svg PUBLIC "-//W3C//DTD SVG 1.1//EN" "http://www.w3.org/Graphics/SVG/1.1/DTD/svg11.dtd">
<svg width="100%" height="100%" viewBox="0 0 24 24" version="1.1" xmlns="http://www.w3.org/2000/svg" xmlns:xlink="http://www.w3.org/1999/xlink" xml:space="preserve" xmlns:serif="http://www.serif.com/" style="fill-rule:evenodd;clip-rule:evenodd;stroke-linejoin:round;stroke-miterlimit:2;">
    <path d="M16.616,18.031C15.077,19.263 13.124,20 11,20C6.033,20 2,15.967 2,11C2,6.033 6.033,2 11,2C15.967,2 20,6.033 20,11C20,13.124 19.263,15.077 18.031,16.616L21.707,20.293C22.097,20.683 22.097,21.317 21.707,21.707C21.317,22.097 20.683,22.097 20.293,21.707L16.616,18.031ZM11,4C7.137,4 4,7.137 4,11C4,14.863 7.137,18 11,18C14.863,18 18,14.863 18,11C18,7.137 14.863,4 11,4Z" style="fill:url(#_Linear1);"/>
    <defs>
        <linearGradient id="_Linear1" x1="0" y1="0" x2="1" y2="0" gradientUnits="userSpaceOnUse" gradientTransform="matrix(16,16,-16,16,5,5)"><stop offset="0" style="stop-color:rgb(6,182,212);stop-opacity:1"/><stop offset="0.1" style="stop-color:rgb(6,182,212);stop-opacity:1"/><stop offset="0.5" style="stop-color:rgb(16,185,129);stop-opacity:1"/><stop offset="0.9" style="stop-color:rgb(245,158,11);stop-opacity:1"/><stop offset="1" style="stop-color:rgb(245,158,11);stop-opacity:1"/></linearGradient>
    </defs>
</svg>
