<?xml version="1.0" encoding="UTF-8" standalone="no"?>
<!DOCTYPE svg PUBLIC "-//W3C//DTD SVG 1.1//EN" "http://www.w3.org/Graphics/SVG/1.1/DTD/svg11.dtd">
<svg width="100%" height="100%" viewBox="0 0 76 78" version="1.1" xmlns="http://www.w3.org/2000/svg" xmlns:xlink="http://www.w3.org/1999/xlink" xml:space="preserve" xmlns:serif="http://www.serif.com/" style="fill-rule:evenodd;clip-rule:evenodd;stroke-linejoin:round;stroke-miterlimit:2;">
    <g transform="matrix(1,0,0,1,-5,-5.041)">
        <path d="M29.219,60.303C24.773,60.303 22.636,56.885 23.752,52.931C26.056,44.736 40.861,32.592 50.95,32.592C58.307,32.592 57.747,39.175 53.434,44.79L51.05,47.429C42.499,55.82 34.572,60.303 29.219,60.303M65.279,5.041C52.403,5.046 38.224,12.923 29.319,20.383L30.022,21.402C43.844,11.713 63.023,5.413 68.31,14.863C71.102,19.848 66.363,29.916 59.689,37.873C61.285,34.359 60.231,27.612 50.925,27.612C35.455,27.612 5,48.105 5,69.078C5,77.479 10.828,82.96 20.428,82.96C46.124,82.96 80.972,40.84 80.972,19.685C80.972,12.212 76.673,5.041 65.279,5.041" style="fill:white;fill-rule:nonzero;"/>
    </g>
</svg>
