<?xml version="1.0" encoding="UTF-8" standalone="no"?>
<!DOCTYPE svg PUBLIC "-//W3C//DTD SVG 1.1//EN" "http://www.w3.org/Graphics/SVG/1.1/DTD/svg11.dtd">
<svg width="100%" height="100%" viewBox="0 0 138 129" version="1.1" xmlns="http://www.w3.org/2000/svg" xmlns:xlink="http://www.w3.org/1999/xlink" xml:space="preserve" xmlns:serif="http://www.serif.com/" style="fill-rule:evenodd;clip-rule:evenodd;stroke-linejoin:round;stroke-miterlimit:2;">
    <g transform="matrix(1,0,0,1,-443.244738,-802.217974)">
        <g id="Jordan" transform="matrix(0.369877,0,0,0.369877,443.244702,802.147357)">
            <path d="M201.958,23.829C201.815,23.073 201.718,22.291 201.664,21.499C200.902,10.527 209.161,1.013 220.132,0.24C231.115,-0.525 240.627,7.745 241.392,18.717C242.158,29.689 233.896,39.204 222.926,39.977C222.232,40.029 221.545,40.039 220.872,40.012C220.426,40.126 220.16,40.181 219.777,40.518C218.649,42.278 222.649,41.95 219.929,49.641C219.929,49.641 219.912,50.485 219.608,51.33C219.395,54.282 218.259,63.031 218.097,67.69C218.675,68.366 218.838,68.695 218.773,70.331C218.516,72.546 218.008,77.97 217.191,81.447C216.499,84.425 215.281,84.994 214.302,85.724C212.924,91.895 212.559,97.007 209.022,104.502C208.701,110.184 208.301,111.731 207.109,114.506C206.977,122.873 207.554,124.118 201.909,137.366C200.451,143.562 201.838,147.848 203.377,154.287C204.95,160.902 209.316,163.667 209.964,170.443C211.494,186.399 211.11,197.264 207.687,209.774L210.676,216.851C214.383,218.551 223.586,223.202 218.483,230.562C225.668,234.339 236.524,238.35 245.476,246.008C249.079,249.006 252.883,252.277 256.298,256.117C262.798,257.129 262.103,257.646 266.922,260.606C281.087,269.292 303.804,286.523 316.972,298.722C319.24,300.046 320.164,301 321.996,301.96C322.281,302.51 322.361,302.635 322.298,302.786C321.668,304.378 321.692,304.423 321.124,305.692C321.835,306.478 323.159,307.212 323.951,307.9C324.691,308.13 324.691,307.776 325.961,307.464C327.615,309.011 329.662,310.258 330.396,310.185C332.639,309.617 332.257,310.08 334.15,307.961C334.832,307.259 335.972,307.97 335.972,307.97C336.683,307.136 338.214,305.472 340.251,304.27C341.877,303.311 344.981,303.206 344.981,303.206C346.021,303.214 345.825,304.281 345.736,304.627C344.562,305.233 342.074,305.899 340.677,306.93C337.635,310.077 335.253,314.32 335.253,314.32C341.378,313.483 345.14,315.003 350.244,314.417C353.027,314.257 355.083,314.436 358.007,312.321C358.007,312.321 360.815,310.322 363.333,309.26C365.777,308.195 368.097,308.763 370.25,310.328C371.769,312.042 372.684,312.052 370.374,314.472C369.538,315.414 368.328,316.463 366.791,317.984C364.088,320.653 360.45,324.214 356.681,327.16C352.866,330.138 348.537,332.815 345.834,334.042C339.013,338.941 340.623,337.66 335.261,342.516C334.586,343.122 332.791,344.204 331.919,344.783C329.803,346.171 329.144,345.013 327.765,342.47C327.765,342.47 327.135,341.52 326.094,339.492C324.957,337.279 324.103,334.747 324.449,334.79C323.178,334.628 317.46,327.924 317.444,326.485C316.235,326.208 311.076,321.213 310.891,320.26L306.321,316.596C301.092,317.683 299.893,314.436 286.086,304.638C284.51,304.611 282.076,303.759 278.588,301.171C272.357,296.181 257.409,284.89 254.876,283.6C252.153,282.214 248.902,280.907 246.908,279.261C243.92,278.71 242.285,278.399 240.79,277.981C239.262,277.564 237.874,277.023 234.008,276.505C227.713,275.723 221.184,273.118 214.97,270.006C212.027,268.612 209.467,267.901 206.933,266.813C201.251,264.414 196.379,262.253 192.604,261.382C191.164,261.24 184.316,259.184 180.725,257.087C179.481,256.447 178.759,255.833 177.942,255.646C176.057,255.212 174.847,255.958 173.996,256.244C169.39,258.643 165.077,260.714 161.093,262.859C157.384,264.842 153.97,266.903 150.352,268.986C147.088,270.871 143.318,272.647 139.442,274.498C139.442,274.498 128.389,280.038 122.352,282.19C117.115,286.465 106.409,293.863 99.875,297.527C96.639,299.065 90.353,303.048 87.453,303.938C85.799,305.27 79.905,309.476 75.29,312.945C71.724,315.612 69.03,317.861 69.03,317.861C66.959,319.718 67.1,320.599 63.162,318.926C62.068,319.824 61.224,320.384 60.521,320.901C57.677,322.964 57.435,322.466 56.396,322.412C54.413,324.128 54.164,323.241 52.43,325.215C51.292,326.976 52.457,326.556 50.055,327.412C49.55,327.607 49.309,328.217 48.918,328.558C46.988,330.148 46.981,334.639 42.357,334.959C39.68,336.871 40.365,339.176 38.32,339.076C38.445,341.057 34.701,343.948 34.026,343.94C28.131,345.974 27.721,341.638 20.644,344.874C19.727,345.292 18.385,346.45 16.616,346.785C13.504,347.372 9.742,346.758 7.448,344.98C3.838,342.197 0.513,336.827 0.513,336.827C-0.633,334.115 0.033,332.398 3.616,329.836C5.109,328.886 5.385,328.175 7.893,328.004C9.138,327.534 8.8,328.253 11.024,327.455C12.313,326.992 12.313,327.322 14.909,327.1C15.504,326.699 16.34,326.556 17.46,326.192C19.514,325.515 21.516,324.76 21.516,324.76C21.516,324.76 22.039,324.236 24.014,324.423C25.685,323.738 27.402,322.723 28.282,322.412C28.059,319.764 28.344,319.888 29.571,318.822C31.1,317.504 31.375,317.719 32.514,318.536C32.994,318.259 33.225,318.164 33.172,317.761C32.985,316.383 31.803,315.734 32.159,312.695C31.634,311.477 30.861,309.975 31.03,309.067C31.279,308.088 31.52,307.617 32.115,307.305C32.747,306.969 32.95,307.422 33.289,307.802C33.892,308.506 34.383,310.587 34.383,310.587C34.595,312.936 35.324,315.976 37.645,314.26C39.013,312.872 39.28,309.175 42.072,309.965L44.064,311.698C45.754,310.108 45.834,310.108 46.847,309.468C46.847,309.468 45.264,307.868 46.653,306.623C47.603,305.777 48.75,305.171 50.787,302.915C56.379,296.735 59.251,294.005 65.299,289.025C77.364,279.101 91.092,272.141 99.815,268.681C102.659,265.071 105.426,262.67 111.738,262.064C119.242,249.394 133.611,238.077 136.911,236.272C139.595,231.407 140.76,231.924 144.272,230.948C147.054,228.715 147.685,228.715 148.931,226.386C150.141,221.577 146.14,208.727 156.354,208.079C158.525,205.012 157.982,205.749 160.401,202.851C158.765,198.813 158.09,195.437 157.645,192.527C157.565,192.19 153.591,189.388 154.718,185.733C153.03,183.725 149.873,179.035 148.887,176.838C148.434,176.848 148.059,176.678 147.562,176.609C147.047,176.527 146.405,176.556 145.686,176.494C144.095,180.6 142.361,180.903 139.533,181.81C134.483,192.573 132.705,197.127 118.416,206.026C112.744,212.376 110.929,219.453 110.956,219.347C109.979,221.444 110.324,224.38 110.84,225.954C110.093,228.283 110.288,228.515 110.288,228.515C110.6,229.395 111.409,230.56 112.405,230.807C114.12,231.262 115.837,231.189 115.738,233.101C115.507,235.493 112.369,235.101 110.883,234.834C105.166,233.927 106.972,230.201 103.316,231.445C100.515,233.277 99.466,238.683 94.895,237.982C94.291,237.583 94.477,236.399 94.886,235.545C95.527,234.211 96.663,233.109 95.989,232.609C93.018,233.543 87.061,235.518 87.061,235.518C84.261,236.283 81.192,234.886 83.949,233.045C85.23,232.547 87.061,231.924 89.32,230.476C89.32,230.476 90.483,228.892 88.253,229.686C85.815,230.557 82.224,231.098 79.646,230.814C79.646,230.814 74.302,230.112 73.617,229.693C72.923,229.274 72.292,227.622 73.964,227.631C76.08,227.649 81.379,227.026 85.487,225.932C87.471,225.159 91.24,222.927 93.357,221.878C93.357,221.878 95.651,218.535 96.913,217.876C99.02,215.451 100.8,214.017 102.665,211.537C104.489,207.774 106.373,201.819 112.41,192.598C115.202,188.348 118.671,183.396 123.036,178.97C123.036,178.97 124.165,171.885 129.847,166.843C131.102,163.89 133.004,160.414 134.881,157.195C135.61,155.959 136.302,154.884 136.996,153.71C138.757,150.945 140.607,145.796 147.471,144.987C147.471,144.987 150.405,142.818 151.534,141.278C153.295,139.776 152.894,137.438 154.325,135.791C152.138,133.659 146.546,129.648 146.002,124.072C145.424,118.16 147.531,113.296 151.106,109.696C155.072,105.73 159.251,103.748 164.327,104.05C170.667,104.992 171.867,107.09 173.884,109.171C175.823,111.145 176.545,109.875 177.362,112.186C182.679,113.6 182.385,112.978 182.34,116.89C183.158,117.991 184.528,119.016 184.509,121.3C186.298,117.592 186.651,116.908 191.426,112.827C192.556,109.51 193.322,106.248 194.315,102.931C195.245,99.865 196.402,96.708 197.3,94.333C196.348,87.629 198.302,86.518 200.909,80.641C200.448,79.831 200.546,79.601 200.741,78.275C201.755,74.391 203.338,69.25 204.28,65.898C204.28,65.898 204.591,64.565 205.969,64.467C207.161,60.226 208.95,52.33 209.25,50.72C210.477,46.284 209.686,44.861 208.744,42.362C208.44,41.544 208.584,40.379 208.059,39.471C206.575,36.885 204.975,33.523 203.891,31.122C203.187,29.593 202.076,23.83 202.076,23.83C201.13,20.886 201.958,23.829 201.958,23.829Z" style="fill:white;fill-rule:nonzero;"/>
        </g>
    </g>
</svg>
