<?xml version="1.0" encoding="UTF-8" standalone="no"?>
<!DOCTYPE svg PUBLIC "-//W3C//DTD SVG 1.1//EN" "http://www.w3.org/Graphics/SVG/1.1/DTD/svg11.dtd">
<svg width="100%" height="100%" viewBox="0 0 123 140" version="1.1" xmlns="http://www.w3.org/2000/svg" xmlns:xlink="http://www.w3.org/1999/xlink" xml:space="preserve" xmlns:serif="http://www.serif.com/" style="fill-rule:evenodd;clip-rule:evenodd;stroke-linejoin:round;stroke-miterlimit:2;">
    <g transform="matrix(1,0,0,1,-450.802849,-801.536846)">
        <g id="Kickers" transform="matrix(3.013287,0,0,3.012474,441.479762,578.445184)">
            <path d="M18.014,75.082L18.055,86.013L26.602,77.849C26.827,76.637 25.807,75.311 27.065,74.909L38.837,74.909C39.653,74.981 40.237,76.35 39.654,77.004L25.416,92.088L41.013,113.732C41.281,114.063 42.943,113.479 43.673,115.256C43.804,115.515 43.576,115.623 43.438,115.725C40.471,117.821 33.845,121.824 32.563,120.116L18.119,102.077L18.141,107.576C18.842,108.557 20.382,109.147 20.845,110.171C20.975,110.457 20.951,110.778 20.712,111.151C17.69,113.518 6.874,113.209 3.328,110.627C3.013,110.352 3.018,109.913 3.331,109.617L6.752,107.004C6.925,99.222 6.841,91.197 6.841,83.413L3.736,81.078C6.541,76.99 12.107,74.332 16.63,74.069C17.362,73.951 18.016,74.662 18.014,75.082Z" style="fill:white;"/>
        </g>
    </g>
</svg>
