<?xml version="1.0" encoding="UTF-8" standalone="no"?>
<!DOCTYPE svg PUBLIC "-//W3C//DTD SVG 1.1//EN" "http://www.w3.org/Graphics/SVG/1.1/DTD/svg11.dtd">
<svg width="100%" height="100%" viewBox="0 0 224 108" version="1.1" xmlns="http://www.w3.org/2000/svg" xmlns:xlink="http://www.w3.org/1999/xlink" xml:space="preserve" xmlns:serif="http://www.serif.com/" style="fill-rule:evenodd;clip-rule:evenodd;stroke-linejoin:round;stroke-miterlimit:2;">
    <g transform="matrix(1,0,0,1,-42.134715,-0.99818)">
        <path d="M114.691,70.986L105.763,86.405L56.346,83.625L61.294,75.036L114.691,70.986ZM150.414,21.858L154.891,38.874L84.773,34.266L89.717,25.681L150.414,21.858ZM103.929,1.001L144.972,1.032L148.07,12.666L98.99,9.586L103.929,1.001ZM100.321,95.993L93.194,108.247L42.135,108.301L47.079,99.719L100.321,95.993ZM189.966,62.935L177.606,84.358L189.378,84.358C194.831,84.358 204.605,81.636 207.612,73.869C210.398,66.651 205.278,62.926 201.704,62.926L189.966,62.935ZM201.752,42.442L212.02,42.378C218.853,42.342 225.98,39.216 228.587,32.874C230.991,26.99 227.759,21.979 223.476,21.997L213.545,21.985L201.752,42.442ZM155.276,38.874L165.644,20.888L200.734,18.635L201.958,16.453L169.5,14.182L177.091,1.001L237.284,0.998C255.795,0.998 269.488,7.616 264.165,27.078C262.564,32.974 255.04,47.817 232.974,54.034C237.657,54.592 249.323,59.761 247.313,73.16C243.742,96.921 212.978,108.231 195.865,108.237L124.801,108.271L121.299,94.523L158.52,91.898L159.784,89.721L119.414,87.263L115.063,70.965L172.507,67.612L173.756,65.454L70.555,58.942L75.499,50.36L186.586,43.148L187.844,40.987L155.276,38.874" style="fill:white;"/>
    </g>
</svg>
