<?xml version="1.0" encoding="UTF-8" standalone="no"?>
<!DOCTYPE svg PUBLIC "-//W3C//DTD SVG 1.1//EN" "http://www.w3.org/Graphics/SVG/1.1/DTD/svg11.dtd">
<svg width="100%" height="100%" viewBox="0 0 156 56" version="1.1" xmlns="http://www.w3.org/2000/svg" xmlns:xlink="http://www.w3.org/1999/xlink" xml:space="preserve" xmlns:serif="http://www.serif.com/" style="fill-rule:evenodd;clip-rule:evenodd;stroke-linejoin:round;stroke-miterlimit:2;">
    <g transform="matrix(1,0,0,1,-434.435618,-843.712989)">
        <g id="Nike" transform="matrix(0.155129,0,0,0.155129,434.435618,843.713833)">
            <path d="M110.308,356.244C80.512,355.06 56.134,346.907 37.073,331.764C33.435,328.872 24.767,320.198 21.859,316.54C14.129,306.821 8.874,297.361 5.369,286.867C-5.417,254.56 0.134,212.168 21.246,165.642C39.323,125.811 67.216,86.306 115.879,31.591C123.047,23.54 144.394,-0.005 144.532,-0.005C144.583,-0.005 143.42,2.01 141.955,4.464C129.302,25.658 118.476,50.622 112.578,72.234C103.103,106.913 104.246,136.673 115.925,159.749C123.981,175.647 137.792,189.418 153.323,197.03C180.511,210.351 220.318,211.453 268.93,200.254C272.277,199.479 438.123,155.453 637.48,102.418C836.837,49.377 999.975,6.015 1000,6.051C1000.056,6.097 536.838,204.311 296.374,307.142C258.292,323.423 248.108,327.535 230.205,333.821C184.44,349.892 143.445,357.56 110.308,356.244Z" style="fill:white;fill-rule:nonzero;"/>
        </g>
    </g>
</svg>
