<?xml version="1.0" encoding="UTF-8" standalone="no"?>
<!DOCTYPE svg PUBLIC "-//W3C//DTD SVG 1.1//EN" "http://www.w3.org/Graphics/SVG/1.1/DTD/svg11.dtd">
<svg width="100%" height="100%" viewBox="0 0 720 202" version="1.1" xmlns="http://www.w3.org/2000/svg" xmlns:xlink="http://www.w3.org/1999/xlink" xml:space="preserve" xmlns:serif="http://www.serif.com/" style="fill-rule:evenodd;clip-rule:evenodd;stroke-linejoin:round;stroke-miterlimit:2;">
    <g transform="matrix(1,0,0,1,-33.6,-177.18)">
        <g>
            <path d="M541.96,195.02C612.26,187.25 682.8,181.71 753.37,177.18C715.21,186.9 676.92,196.26 639.12,207.39C586.04,222.54 534.28,241.86 483.16,262.56C456.41,246.77 429.56,231.16 402.83,215.34C448.84,206.32 495.39,200.33 541.96,195.02Z" style="fill:white;fill-rule:nonzero;"/>
            <path d="M33.6,181.49C121.57,181.6 209.55,181.36 297.5,181.61C316.72,191.28 335.25,202.31 354,212.86C426.64,254.59 498.89,297.01 570.78,340.01C588.06,350.37 605.35,360.7 622.45,371.36C626.2,373.82 630.16,375.99 633.64,378.84C555.96,346.2 478.97,311.83 400.21,281.85C333.06,256.15 264.5,234.13 194.81,216.45C156.34,206.58 117.55,198 78.6,190.24C63.64,187.15 48.51,184.77 33.6,181.49Z" style="fill:white;fill-rule:nonzero;"/>
            <path d="M130.11,310.12C166.65,286.16 207,268.61 248.06,254.02C272.53,260.62 296.58,268.77 320.69,276.58C288.63,289.29 257.82,305.45 230.07,326.01C212.33,339.35 195.24,354 181.74,371.73C141.92,371.75 102.1,371.77 62.29,371.72C81.2,347.53 104.49,326.96 130.11,310.12Z" style="fill:white;fill-rule:nonzero;"/>
            <path d="M251.69,344.79C279.2,319.78 311.24,300.05 345.13,284.94C364.27,291.63 383.27,298.74 402.19,306.04C385.82,317.69 369.52,329.72 355.91,344.61C348.07,353.01 341.14,362.21 334.73,371.73C298.71,371.77 262.69,371.72 226.67,371.76C233.93,361.83 242.7,353.13 251.69,344.79Z" style="fill:white;fill-rule:nonzero;"/>
        </g>
    </g>
</svg>
