<?xml version="1.0" encoding="UTF-8" standalone="no"?>
<!DOCTYPE svg PUBLIC "-//W3C//DTD SVG 1.1//EN" "http://www.w3.org/Graphics/SVG/1.1/DTD/svg11.dtd">
<svg width="100%" height="100%" viewBox="0 0 313 107" version="1.1" xmlns="http://www.w3.org/2000/svg" xmlns:xlink="http://www.w3.org/1999/xlink" xml:space="preserve" xmlns:serif="http://www.serif.com/" style="fill-rule:evenodd;clip-rule:evenodd;stroke-linejoin:round;stroke-miterlimit:2;">
    <g transform="matrix(1,0,0,1,-69.3,-14.2)">
        <path d="M374.4,66.4L356.3,66.4C354.5,62 352.6,58.5 342.5,58.5C335.5,58.5 332.5,61.4 332.5,64.3C332.5,67.5 335,70.1 342.7,71.8L359.1,76.2C369.8,79.1 375,87.6 375,96.5C375,101.5 373.9,107.5 369.2,112.5C365.7,116.2 360.3,121.1 342.5,121.1C318.1,121.1 310,105.7 310,96.3L329,96.3C330.9,103.1 335.5,105.7 344.8,105.7C351.2,105.7 356.7,103.4 356.7,98.5C356.7,93.8 352.7,92.1 347.6,90.7L334.7,87.2C328.5,85.3 323.3,83.8 319.6,80.7C310,72.5 310.7,57.8 321.1,50.2C326.9,46 332.8,43.8 342.3,43.8C353.4,43.8 359.7,47 364.7,50.4C369,53.2 374.3,60.6 374.4,66.4M69.3,14.2C69.5,14.8 107.1,120.2 107.1,120.2L129.6,120.2L164.2,32.5L379.2,32.5L380.8,14.2L147.7,14.2L119,86.9L93.2,14.2L69.3,14.2M255.2,82.3L283.3,120.2L300.9,120.2L300.9,45.2L280.7,45.2L280.7,86L255.3,45.3L235.9,45.3L235.9,120.2L255.3,120.2L255.3,82.3L255.2,82.3ZM381.5,116.3C381.5,114.1 379.7,112.3 377.5,112.3C375.3,112.3 373.5,114.1 373.5,116.3C373.5,118.5 375.3,120.3 377.5,120.3C379.7,120.3 381.6,118.5 381.5,116.3C381.6,116.3 381.6,116.3 381.5,116.3ZM381.1,116.3C381.1,118.2 379.5,119.8 377.6,119.8C375.7,119.8 374.1,118.2 374.1,116.3C374.1,114.4 375.7,112.8 377.6,112.8C379.5,112.7 381.1,114.2 381.1,116.3C381.1,116.2 381.1,116.2 381.1,116.3ZM379.4,115.4C379.4,114.6 378.7,114 378,114L375.9,114L375.9,118.2L376.8,118.2L376.8,116.8L377.5,116.8L378.4,118.2L379.5,118.2L378.5,116.7C379.1,116.6 379.5,116 379.4,115.4ZM378.5,115.5C378.5,115.8 378.2,116.1 377.9,116.1L376.9,116.1L376.9,114.9L377.8,114.9C378.1,114.8 378.5,115 378.6,115.3C378.5,115.4 378.6,115.4 378.5,115.5ZM148.2,120.2L169.8,120.2L173.8,108.5L202.3,108.5L206.4,120.2L227.6,120.2L200.4,45.3L177.5,45.3L148.2,120.2ZM179.8,94.9L188.2,70L196.4,94.9L179.8,94.9Z" style="fill:white;fill-rule:nonzero;"/>
    </g>
</svg>
