<?xml version="1.0" encoding="UTF-8" standalone="no"?>
<!DOCTYPE svg PUBLIC "-//W3C//DTD SVG 1.1//EN" "http://www.w3.org/Graphics/SVG/1.1/DTD/svg11.dtd">
<svg width="100%" height="100%" viewBox="0 0 180 83" version="1.1" xmlns="http://www.w3.org/2000/svg" xmlns:xlink="http://www.w3.org/1999/xlink" xml:space="preserve" xmlns:serif="http://www.serif.com/" style="fill-rule:evenodd;clip-rule:evenodd;stroke-linejoin:round;stroke-miterlimit:2;">
    <g transform="matrix(1,0,0,1,-422.435618,-833.019737)">
        <g id="Yeezy" transform="matrix(0.663839,0,0,0.663839,405.562032,721.164966)">
            <path d="M261.542,293.392C256.215,293.339 250.887,293.522 245.567,293.37C245.316,293.362 245.171,293.041 244.965,292.897C244.401,292.538 243.898,291.662 243.578,291.151C243.761,274.43 243.647,257.693 243.692,240.964C233.32,217.611 222.55,194.427 211.964,171.166L213.671,168.689C219.547,168.75 225.431,168.674 231.308,168.719C231.917,168.727 233.007,169.139 233.259,169.672C240.332,184.412 247.008,199.762 253.547,214.768C260.331,199.685 266.847,184.427 274.278,169.672C274.514,169.207 275.863,168.727 276.366,168.719C282.105,168.697 287.852,168.719 293.591,168.719C293.911,169.062 294.886,170.312 295.146,170.808C295.344,171.181 295.245,171.6 295.084,171.951C284.498,194.892 274.103,217.932 263.714,240.964L263.714,291.655L261.87,293.4C261.763,293.4 261.649,293.392 261.542,293.392M195.38,293.369C172.561,293.369 149.75,293.353 126.939,293.369C126.74,293.369 126.557,293.323 126.367,293.3L124.484,291.433L124.484,276.891C130.544,265.253 136.77,253.683 142.944,242.106C143.058,241.886 143.256,241.725 143.416,241.535C143.767,241.108 143.53,240.948 142.982,240.94L133.866,240.925C133.699,240.796 132.144,239.393 132.106,239.248C132.052,239.065 132.03,238.875 132.03,238.684C132.045,233.548 132.045,228.411 132.03,223.281C132.449,222.641 133.531,221.124 134.347,221.132C140.863,221.178 147.38,221.01 153.896,221.178L170.999,188.68C157.257,188.68 143.515,188.725 129.789,188.733C128.44,188.733 126.832,187.529 126.771,186.21C126.535,181.37 126.969,176.302 126.771,171.379C126.755,171.013 126.855,170.655 126.969,170.304L128.867,168.696C150.085,168.749 171.303,168.445 192.529,168.719C193.116,168.726 194.534,170.091 194.838,170.571L194.838,184.495C188.521,196.789 181.928,208.937 175.541,221.201C178.727,221.109 181.92,221.078 185.113,221.109C186.234,221.109 187.743,222.771 187.728,223.853C187.636,228.784 187.819,233.753 187.728,238.684C187.713,239.386 185.96,241.016 185.113,240.994C178.589,240.834 172.035,240.925 165.504,240.925L148.492,273.454C164.055,273.088 179.817,273.438 195.38,273.438C196.569,274.223 197.331,274.323 197.461,275.756C197.88,280.26 197.293,285.877 197.461,290.587C197.468,290.877 197.445,291.174 197.4,291.463L195.471,293.369L195.38,293.369ZM74.699,293.369C69.554,293.391 64.426,293.643 59.296,293.391C58.762,293.369 57.444,292.157 57.208,291.723C57.116,291.547 57.055,291.349 57.055,291.151C57.032,274.231 57.109,257.296 56.979,240.391L25.418,171.242L27.004,168.688C32.819,168.749 38.649,168.673 44.465,168.719C45.341,168.734 46.019,169.191 46.713,169.702C53.595,184.625 60.409,199.609 66.956,214.684C67.138,214.318 67.352,213.96 67.52,213.587C73.533,200.242 79.912,187.087 85.743,173.658C86.612,171.661 87.176,168.91 89.523,168.696C94.797,168.223 101.603,168.749 107.068,168.688L108.813,171.295C98.242,194.51 87.709,217.748 77.146,240.963L77.146,291.532C76.391,292.34 75.827,293.338 74.699,293.369" style="fill:white;fill-rule:nonzero;"/>
        </g>
    </g>
</svg>
